<svg xmlns="http://www.w3.org/2000/svg" xmlns:xlink="http://www.w3.org/1999/xlink">
<line x1="29"  y1="74" x2="92" y2="15" style="stroke:#0000ff;"/>
<line x1="76"  y1="138" x2="101" y2="80" style="stroke:#0000ff;"/>
<line x1="308"  y1="70" x2="379" y2="44" style="stroke:#0000ff;"/>
<polygon points="410,94 408,102 402,109 392,114 380,118 366,119 352,118 340,114 330,109 324,102 322,94 324,86 330,79 340,74 352,70 366,69 380,70 392,74 402,79 408,86" style="stroke:#ff0000; fill:#0000ff;"/>
<polygon points="251,134 251,151 249,167 247,179 244,187 241,190 238,187 235,179 233,167 231,151 231,134 231,117 233,101 235,89 238,81 241,78 244,81 247,89 249,101 251,117" style="stroke:#ff0000; fill:#0000ff;"/>
<polygon points="266,69 264,77 258,84 250,90 238,94 226,95 214,94 202,90 194,84 188,77 186,69 188,61 194,54 202,48 214,44 226,43 238,44 250,48 258,54 264,61" style="stroke:#ff0000; fill:#0000ff;"/>
<polygon points="227,44 225,49 219,53 209,56 197,58 184,59 171,58 159,56 149,53 143,49 141,44 143,39 149,35 159,32 171,30 184,29 197,30 209,32 219,35 225,39" style="stroke:#ff0000; fill:#0000ff;"/>
<line x1="20"  y1="28" x2="72" y2="83" style="stroke:#0000ff;"/>
</svg>
