<svg xmlns="http://www.w3.org/2000/svg">    <line x1="76" y1="138" x2="101" y2="80" stroke="#34495e" stroke-width="4" />    <line x1="308" y1="70" x2="379" y2="44" stroke="#34495e" stroke-width="4" />   <polygon points="410.0,94.0,409.8325667160368,96.17889356869145,409.33154113253715,98.34120444167326,408.500736356719,100.47047612756302,407.34647531457995,102.55050358314172,405.8775426296126,104.56545654351748,404.1051177665153,106.5,402.04268994871563,108.33941090877616,399.70595549723504,110.06969024216349,397.1126983722081,111.67766952966369,394.2826548262077,113.15111107797445,391.237363199446,114.4788011072248,388.0,115.65063509461096,384.5952035165908,116.65769467591625,381.04888630632945,117.4923155196477,377.3880379845109,118.1481456572267,373.64051981734497,118.6201938253052,369.834852680897,118.90486745229364,366.0,119.0,362.165147319103,118.90486745229364,358.3594801826551,118.6201938253052,354.6119620154891,118.1481456572267,350.9511136936706,117.49231551964772,347.4047964834092,116.65769467591625,344.0,115.65063509461098,340.762636800554,114.4788011072248,337.7173451737923,113.15111107797445,334.8873016277919,111.67766952966369,332.29404450276496,110.06969024216349,329.95731005128437,108.33941090877614,327.89488223348474,106.50000000000001,326.1224573703874,104.56545654351748,324.65352468542005,102.55050358314172,323.499263643281,100.47047612756302,322.66845886746285,98.34120444167326,322.1674332839632,96.17889356869145,322.0,94.0,322.1674332839632,91.82110643130855,322.66845886746285,89.65879555832674,323.499263643281,87.529523872437,324.65352468542005,85.44949641685828,326.1224573703874,83.43454345648253,327.8948822334847,81.5,329.95731005128437,79.66058909122386,332.29404450276496,77.93030975783653,334.8873016277919,76.32233047033631,337.71734517379224,74.84888892202555,340.762636800554,73.5211988927752,344.0,72.34936490538904,347.4047964834092,71.34230532408375,350.9511136936706,70.50768448035228,354.6119620154891,69.8518543427733,358.3594801826551,69.3798061746948,362.165147319103,69.09513254770636,366.0,69.0,369.834852680897,69.09513254770636,373.6405198173449,69.37980617469479,377.3880379845109,69.8518543427733,381.04888630632945,70.5076844803523,384.59520351659074,71.34230532408374,388.0,72.34936490538902,391.237363199446,73.5211988927752,394.2826548262077,74.84888892202555,397.11269837220806,76.32233047033631,399.70595549723504,77.93030975783651,402.04268994871563,79.66058909122384,404.1051177665153,81.50000000000001,405.8775426296126,83.4345434564825,407.34647531457995,85.44949641685828,408.500736356719,87.52952387243698,409.33154113253715,89.65879555832674,409.8325667160368,91.82110643130854,410.0,94.0" style="fill:#e74c3c;stroke:#34495e;stroke-width:1" />   <polygon points="251.0,134.0,250.96194698091745,138.88072159386886,250.84807753012208,143.7242979493481,250.6592582628907,148.49386652574117,250.39692620785908,153.15312802623745,250.0630778703665,157.66662265747917,249.6602540378444,162.0,249.19152044288992,166.12028043565857,248.66044443118977,169.9961061424462,248.07106781186548,173.59797974644664,247.4278760968654,176.89848881466276,246.73576436351047,179.87251448018353,246.0,182.49742261192856,245.226182617407,184.75323607405238,244.4202014332567,186.62278676401087,243.5881904510252,188.0918462721878,242.7364817766693,189.14923416868365,241.87155742747657,189.78690309313777,241.0,190.0,240.12844257252343,189.78690309313777,239.2635182233307,189.14923416868365,238.4118095489748,188.0918462721878,237.5797985667433,186.62278676401087,236.773817382593,184.7532360740524,236.0,182.49742261192858,235.26423563648953,179.87251448018353,234.5721239031346,176.89848881466276,233.92893218813452,173.59797974644667,233.33955556881023,169.9961061424462,232.80847955711008,166.12028043565857,232.3397459621556,162.00000000000003,231.9369221296335,157.66662265747917,231.60307379214092,153.15312802623745,231.3407417371093,148.49386652574114,231.15192246987792,143.72429794934808,231.03805301908255,138.88072159386886,231.0,134.0,231.03805301908255,129.11927840613114,231.15192246987792,124.27570205065192,231.3407417371093,119.50613347425886,231.60307379214092,114.84687197376255,231.9369221296335,110.33337734252086,232.3397459621556,106.0,232.80847955711008,101.87971956434143,233.33955556881023,98.00389385755382,233.92893218813452,94.40202025355335,234.5721239031346,91.10151118533724,235.26423563648953,88.12748551981645,236.0,85.50257738807144,236.773817382593,83.24676392594762,237.5797985667433,81.37721323598913,238.4118095489748,79.90815372781218,239.2635182233307,78.85076583131635,240.12844257252343,78.21309690686225,241.0,78.0,241.87155742747657,78.21309690686225,242.7364817766693,78.85076583131635,243.5881904510252,79.90815372781216,244.4202014332567,81.37721323598913,245.22618261740698,83.24676392594759,246.0,85.50257738807142,246.73576436351047,88.12748551981646,247.4278760968654,91.10151118533722,248.07106781186548,94.40202025355333,248.66044443118977,98.00389385755378,249.19152044288992,101.8797195643414,249.6602540378444,106.00000000000001,250.0630778703665,110.3333773425208,250.39692620785908,114.84687197376256,250.6592582628907,119.50613347425885,250.84807753012208,124.2757020506519,250.96194698091745,129.11927840613114,251.0,134.0" style="fill:#e74c3c;stroke:#34495e;stroke-width:1" />   <polygon points="266.0,69.0,265.84778792366984,71.26604931143912,265.39231012048833,73.51485261934019,264.63703305156275,75.72929517266554,263.5877048314363,77.89252372646739,262.252311481466,79.98807480525818,260.6410161513775,82.0,258.7660817715597,83.91298734512719,256.6417777247591,85.71247785185002,254.2842712474619,87.38477631085024,251.71150438746156,88.91715552109343,248.94305745404185,90.29795315151378,246.0,91.5166604983954,242.90473046962796,92.5640024629529,239.68080573302674,93.43200814043362,236.35276180410085,94.11407148351577,232.9459271066772,94.60500157831741,229.48622970990633,94.90106215038539,226.0,95.0,222.51377029009367,94.90106215038539,219.0540728933228,94.60500157831741,215.64723819589918,94.11407148351577,212.31919426697326,93.43200814043362,209.09526953037204,92.5640024629529,206.0,91.51666049839541,203.05694254595815,90.29795315151378,200.28849561253844,88.91715552109343,197.7157287525381,87.38477631085024,195.35822227524088,85.71247785185002,193.23391822844033,83.91298734512719,191.35898384862247,82.00000000000001,189.747688518534,79.98807480525818,188.41229516856367,77.89252372646739,187.36296694843728,75.72929517266553,186.60768987951167,73.51485261934019,186.1522120763302,71.26604931143912,186.0,69.0,186.1522120763302,66.7339506885609,186.60768987951167,64.48514738065982,187.36296694843725,62.27070482733447,188.41229516856367,60.10747627353261,189.747688518534,58.01192519474183,191.35898384862247,56.0,193.2339182284403,54.08701265487281,195.35822227524088,52.28752214814999,197.7157287525381,50.615223689149765,200.2884956125384,49.08284447890657,203.05694254595818,47.702046848486205,205.99999999999997,46.483339501604604,209.095269530372,45.43599753704711,212.31919426697326,44.567991859566376,215.64723819589918,43.88592851648423,219.0540728933228,43.39499842168259,222.51377029009367,43.098937849614614,226.0,43.0,229.48622970990633,43.098937849614614,232.9459271066772,43.39499842168259,236.35276180410082,43.88592851648422,239.68080573302677,44.56799185956638,242.90473046962796,45.43599753704709,245.99999999999997,46.48333950160459,248.94305745404185,47.70204684848621,251.71150438746156,49.082844478906566,254.2842712474619,50.61522368914976,256.6417777247591,52.287522148149975,258.76608177155964,54.087012654872794,260.6410161513776,56.00000000000001,262.252311481466,58.0119251947418,263.5877048314363,60.10747627353262,264.63703305156275,62.27070482733446,265.39231012048833,64.48514738065981,265.84778792366984,66.73395068856088,266.0,69.0" style="fill:#e74c3c;stroke:#34495e;stroke-width:1" />   <polygon points="227.0,44.0,226.83637201794505,45.307336141214876,226.34673337952495,46.604722665003955,225.53481053042992,47.88228567653781,224.40678269379407,49.13030214988503,222.97123484257594,50.339273926110494,221.23909236273087,51.5,219.22353790442665,52.60364654526569,216.93991105411607,53.641814145298085,214.40559159102153,54.60660171779821,211.6398672165212,55.49066664678467,208.66378676309498,56.28728066433487,205.5,56.99038105676658,202.17258525485008,57.59461680554975,198.70686616300375,58.09538931178862,195.1292189394084,58.488887394336025,191.466871639678,58.772116295183125,187.7476969381493,58.94292047137618,184.0,59.0,180.2523030618507,58.94292047137618,176.533128360322,58.772116295183125,172.8707810605916,58.488887394336025,169.29313383699625,58.09538931178862,165.82741474514992,57.59461680554975,162.5,56.99038105676658,159.33621323690502,56.28728066433487,156.3601327834788,55.49066664678467,153.59440840897847,54.60660171779821,151.06008894588393,53.64181414529809,148.77646209557335,52.60364654526569,146.76090763726916,51.50000000000001,145.02876515742406,50.339273926110494,143.59321730620593,49.13030214988503,142.46518946957008,47.882285676537805,141.65326662047505,46.604722665003955,141.16362798205495,45.307336141214876,141.0,44.0,141.16362798205495,42.69266385878513,141.65326662047505,41.39527733499605,142.46518946957005,40.117714323462195,143.59321730620593,38.86969785011497,145.02876515742403,37.66072607388952,146.76090763726916,36.5,148.77646209557335,35.39635345473431,151.06008894588393,34.358185854701915,153.59440840897844,33.39339828220179,156.3601327834788,32.50933335321533,159.33621323690502,31.71271933566512,162.49999999999997,31.009618943233423,165.8274147451499,30.405383194450252,169.29313383699625,29.904610688211374,172.8707810605916,29.511112605663975,176.533128360322,29.22788370481688,180.25230306185068,29.057079528623817,184.0,29.0,187.7476969381493,29.057079528623817,191.46687163967798,29.22788370481688,195.12921893940836,29.511112605663975,198.70686616300378,29.904610688211378,202.17258525485005,30.405383194450245,205.49999999999997,31.009618943233413,208.66378676309498,31.71271933566512,211.6398672165212,32.509333353215325,214.40559159102153,33.39339828220179,216.93991105411604,34.35818585470191,219.22353790442662,35.3963534547343,221.23909236273087,36.50000000000001,222.97123484257594,37.6607260738895,224.40678269379407,38.869697850114974,225.53481053042992,40.11771432346219,226.34673337952495,41.395277334996045,226.83637201794505,42.692663858785124,227.0,43.99999999999999" style="fill:#e74c3c;stroke:#34495e;stroke-width:1" />    <line x1="20" y1="28" x2="72" y2="83" stroke="#34495e" stroke-width="4" />    <line x1="29" y1="74" x2="92" y2="15" stroke="#34495e" stroke-width="4" /></svg>